Patient4_TMGait_0pt6_01_right_23_EMG.mot
version=1
nRows=30
nColumns=33
inDegrees=no
endheader
time	1LAddLong	2LGlutMax	3LGlutMed	4LIliopsoas	5LSemiMemb	6LBicFemLong	7LRecFem	8LVastMed	9LVastLat	10LGasMed	11LTibAnt	12lTibPost	13LPeroneusLong	14LSol	15LExtDigLong	16LFlexDigLong	17RAddLong	18RGlutMax	19RGlutMed	20RIliopsoas	21RSemiMemb	22RBicFemLong	23RRecFem	24RVastMed	25RVastLat	26RGasMed	27RTibAnt	28RTibPost	29RPeroneusLong	30RSol	31RExtDigLong	32RFlexDigLong
28.265	0.002136	0.30548	-0.052795	0.013885	-0.019073	-0.17578	0.048981	-0.006866	-0.17777	0.016632	0.064087	0.006561	-0.001984	0.071106	0.020447	-0.006714	-0.005493	-0.11612	0.013733	0.013733	0.094604	0.13336	0.076294	0.13214	0.056915	0.021973	0.057526	-0.071259	0.46432	-0.10971	-0.001678	-0.007324
28.266	0.017395	0.33951	-0.040588	0.025024	0.010986	-0.0354	0.020905	-0.001984	-0.16922	0.005493	-0.03006	0.005493	0.052795	0.025787	-0.011292	0.001373	0.002899	-0.11444	0.079041	0.024719	0.61508	0.1474	0.30106	0.13992	0.001221	0.008698	0.062256	0.020752	0.38208	-0.083618	0.000763	-0.013275
28.267	0.014954	0.354	-0.026703	0.007172	0.042114	-0.081635	0.013733	0.005646	-0.15564	-0.004272	-0.053864	0.003662	0.086212	-0.003357	-0.18005	0.004272	0.020752	-0.13107	0.024719	-0.056458	0.57541	0.063171	0.30334	-0.05249	-0.11444	0.000763	-0.011597	0.012665	0.24246	-0.10712	0.000916	-0.0177
28.268	0.021057	0.35019	-0.011139	0.00473	0.029602	-0.050659	0.021973	0	-0.11673	0.013123	-0.02182	0.003967	0.069427	0.000305	-0.19333	0.002899	0.003357	-0.12634	-0.029907	-0.064087	0.40939	0.008087	0.14374	-0.13107	-0.13473	-0.009155	-0.070801	-0.028229	0.30258	-0.33371	0.010986	-0.018616
28.269	0.030823	0.34897	-0.003204	0.015411	0.030518	-0.016479	0.032349	-0.005798	-0.034485	0.006256	0.049744	-0.001526	0.05188	0.013275	-0.15198	0.00412	-0.009613	-0.17487	0.07309	0.00885	0.3009	0.070038	-0.21347	-0.12238	-0.09491	-0.029755	-0.067444	-0.038757	0.35599	-0.61005	0.005646	-0.009003
28.27	0.025787	0.3627	0.005341	0.001526	0.056458	-0.04837	0.087738	0.006561	0.043488	0.011749	0.13199	0.009918	0.007782	0.005188	-0.051575	0.010681	-0.016479	-0.18601	0.20477	0.02533	0.29358	0.033264	-0.21576	-0.093536	-0.025635	-0.066528	0.005646	-0.04425	0.354	-0.71365	0.000916	-0.008698
28.271	0.019226	0.40497	0.010376	0.000763	0.046082	-0.063934	0.10208	0.010223	0.10895	0.020447	0.26077	0.002289	-0.019531	-0.019531	0.065002	-0.003662	0.006104	-0.19348	-0.077515	0.032196	0.17502	0.003967	-0.24185	-0.074615	-0.067139	-0.04715	-0.011902	-0.044556	0.23789	-0.62317	0.001984	-0.011292
28.272	0.014496	0.39475	0.024414	0.016632	-0.026093	-0.14618	0.092316	0.002441	0.12039	0.002899	0.26001	0.001068	0.032043	0.058289	0.16266	-0.009003	-0.01297	-0.15671	-0.065155	0.029602	-0.087128	0.013123	-0.44968	-0.068817	-0.056458	0.00351	-0.047607	-0.06485	0.039368	-0.64346	0.003815	-0.010223
28.273	0.021667	0.40817	0.025024	0.013428	-0.072632	-0.36026	0.050201	-0.004272	0.12207	0.009003	0.25497	0.005646	0.007172	0.12955	0.5101	-0.001678	0.00946	-0.18478	-0.17014	0.075378	-0.055389	0.030823	-0.24353	-0.055847	0.054016	0.011139	-0.036316	-0.050201	-0.047607	-0.77743	-0.000458	-0.002136
28.274	0.023956	0.37308	0.056763	-0.002441	-0.007782	-0.30197	0.012054	-0.010071	0.15457	0.006714	0.17868	0.011139	-0.075684	0.11566	0.16296	0.002289	0.0354	-0.22751	-0.35934	0.087433	-0.095215	0.11612	-0.1033	-0.05249	-0.015106	0.013885	0.035095	-0.040588	-0.60699	-0.63873	-0.000305	-0.010223
28.275	0.012207	0.37598	0.046387	-0.003052	0.068054	-0.10239	0.023956	-0.007172	0.12009	-0.010376	-0.095978	0.001373	-0.042725	0.1088	0.087433	-0.005493	0.046082	-0.23972	-0.048676	0.064545	-0.067902	0.09903	-0.13672	-0.008545	0.029755	0.011597	0.014648	-0.40588	-0.62531	-0.69443	0.003662	-0.005798
28.276	0.007782	0.36179	0.055695	0.005798	0.023956	0.044403	0.014191	-0.014343	0.053253	-0.03067	-0.27939	0.005188	0.11765	0.10391	-0.12421	0.011139	0.058746	-0.26016	0.037231	0.026703	0.000763	-0.084991	-0.24277	-0.012054	0.21408	-0.031738	-0.021362	-0.20676	-0.51148	-0.13718	0.003052	-0.003357
28.277	0.001831	0.35797	0.079498	0.026855	-0.039215	0.037994	0.009613	-0.00946	-0.007629	-0.024261	-0.19241	0.002136	0.1059	0.061798	-0.27878	0.007629	0.042725	-0.18631	-0.27664	0.019073	0.064545	-0.21439	-0.17303	0.082092	0.21713	-0.006409	-0.054626	-0.41916	-0.39322	0.44159	0	0.001221
28.278	0.014954	0.31265	0.079803	0.017395	0.077972	-0.024567	-0.015564	-0.014343	0.029144	0.011749	-0.086365	0.002289	0.076447	0.010986	-0.39581	0.003662	0.020752	-0.20355	0.031281	-0.040436	0.066833	-0.28015	-0.064087	0.059814	0.12604	-0.020142	-0.094757	0.53619	-0.056	0.78522	0.004425	-0.011139
28.279	0.026398	0.23117	0.094147	0.019684	0.15549	-0.071716	-0.046539	-0.017395	-0.018768	0.038757	-0.091248	0.002747	0.062408	-0.077972	-0.47714	0.008392	0.006561	-0.21393	-0.12665	-0.072784	0.13016	-0.15961	-0.07431	0.02594	0.074921	-0.12756	-0.021667	0.62164	0.045929	-0.31784	-0.002441	-0.025635
28.28	0.006409	0.18082	0.10803	0.006104	0.058289	-0.009308	-0.04776	-0.001984	-0.069122	0.02533	-0.092926	0.001373	0.077667	-0.10391	-0.36072	0.011139	-0.024414	-0.25742	0.33341	-0.083466	0.19119	0.094604	-0.071716	0.042877	0.06073	-0.081024	0.009155	0.29465	0.18249	-0.19348	-0.000916	-0.019989
28.281	-0.009918	0.068359	0.1181	0.014801	0.012512	0.044098	-0.02182	0.005646	-0.045013	0.025635	-0.041504	0.001373	0.013733	-0.001373	-0.12848	0.016174	-0.007019	-0.31235	0.38254	-0.027313	0.097809	0.14023	-0.055695	0.028381	0.051575	-0.061798	-0.008545	0.020905	0.50064	1.3132	-0.004272	-0.001373
28.282	-0.007629	-0.019684	0.12817	0.00061	-0.013885	0.13412	-0.010376	0.02121	-0.001221	0.028381	-0.036926	0.004578	0.052185	0.014648	-0.042877	0.003662	0.018616	-0.22003	0.038147	-0.027466	0.1767	0.097504	-0.071869	-0.001984	0.070648	-0.094299	-0.085297	-0.09079	0.54489	1.4249	-0.004425	0.010376
28.283	-0.025177	-0.094604	0.11643	-0.006409	-0.041199	0.18005	-0.035858	0.028534	0.10757	0.013275	-0.052948	0.000458	-0.025635	0.00946	0.058746	0.005188	0.040741	-0.24826	0.007629	0.001831	0.24689	0.036011	0.013123	-0.001831	0.03952	-0.048981	-0.048218	-0.25986	0.28183	0.60944	-0.003052	0.002899
28.284	-0.017395	-0.090942	0.090027	-0.001373	-0.04837	0.12665	-0.077362	0.032806	0.19318	0.014648	-0.070343	0.004578	-0.09552	-0.04364	0.07843	0.011292	0.050049	-0.20721	0.12497	0.011139	0.088654	0.13534	0.065918	0.002594	0.007782	0.081482	-0.036469	-0.27222	0.20523	0.6192	-0.003662	-0.00824
28.285	-0.023041	-0.13397	0.051422	0.015564	-0.037079	0.1915	-0.10101	0.025177	0.26138	0.031128	-0.062103	0.007019	0.28275	-0.088348	0.084229	0.009308	0.027771	-0.14481	-0.15549	0.015259	0.031891	0.00061	0.15259	0.008545	0.01236	0.092316	-0.04837	0.38711	0.15701	0.53955	-0.000916	-0.019379
28.286	-0.026855	-0.12711	-0.000305	0.00946	-0.075378	0.31158	-0.065155	0.036011	0.37521	0.11566	-0.032806	0.010529	0.25497	-0.059509	0.10986	0.001068	0.012054	-0.22079	-0.13062	-0.023804	0.1059	-0.12573	0.24139	-0.015106	-0.001984	0.052643	-0.076599	0.2713	0.016174	0.17532	0.001678	-0.017548
28.287	-0.025482	-0.15274	-0.016174	0.000305	-0.1062	0.10162	0.005035	0.02655	0.44144	0.15747	-0.005188	0.001373	-0.12436	-0.04364	0.12116	0.006104	0.03418	-0.18616	-0.063324	-0.03006	0.036926	-0.15854	0.39887	-0.098267	-0.10574	0.054474	-0.14435	0.064697	-0.045624	0.13001	-0.000305	-0.010529
28.288	-0.014954	-0.1561	0.008545	-0.00473	-0.068665	-0.16464	0.021362	0.026703	0.30838	0.20569	0.008392	0.005646	-0.43808	-0.014648	0.10223	0.002899	0.039673	-0.16861	0.21042	-0.11429	-0.10513	0.033722	0.30456	-0.20981	-0.17456	0.042419	0.056763	-0.001984	0.00351	-0.21683	0.006104	-0.00946
28.289	-0.019073	-0.06897	0.027466	-0.001526	-0.076294	-0.33096	-0.024261	0.010376	0.21408	0.1915	-0.007172	-0.001373	-0.37308	0.007629	0.044556	0.005035	-0.005188	-0.16266	-0.32959	-0.068054	-0.019836	0.24658	-0.068665	-0.3154	-0.13031	0.03418	0.28748	-0.018005	0.018463	-0.31647	0.000305	-0.003662
28.29	-0.002594	-0.19486	-0.064545	-0.000916	-0.065308	-0.39139	-0.061798	0.022125	0.1561	0.092773	-0.003662	0.003204	-0.001221	-0.027924	0.067596	0.001984	-0.013885	-0.19165	-0.24368	0.001984	0.002441	0.29816	-0.10986	-0.25101	-0.0914	0.017548	0.21378	-0.019684	-0.000763	-0.03479	0.000458	-0.011292
28.291	0.005798	-0.19348	-0.042877	0.009003	-0.11932	-0.36591	-0.09903	0.040131	0.10407	-0.14587	-0.005646	0.005188	0.28198	0.027466	0.11643	0.001831	-0.007477	-0.16266	-0.053864	0.034485	0.028992	0.34988	-0.27161	-0.1445	-0.11704	0.02533	-0.1236	-0.006256	0.039978	0.26306	0.000763	-0.001984
28.292	0.005798	-0.21362	0.04303	0.040741	-0.17258	-0.327	-0.079803	0.026855	0.12833	-0.16907	-0.01709	0.005035	0.21118	0.11292	0.1062	-0.003357	-0.005341	-0.16922	0.20294	0.11948	0.0354	0.34393	-0.42862	0.10773	0.017853	0.026703	-0.11063	-0.10834	0.083313	0.011444	0.007324	-0.011902
28.293	0.011597	-0.31403	0.12329	0.049133	-0.086823	-0.27451	-0.066071	0.019684	0.1239	-0.091248	0.004425	0.002289	0.064087	0.08728	0.06012	-0.005341	0.005341	-0.20752	0.48553	0.035706	0.055389	0.19211	-0.48843	0.16785	0.12054	0.01236	0.22705	-0.068054	0.11185	-0.09491	0	-0.021362
28.294	0.015106	-0.38879	0.12955	0.034943	0.056915	-0.085602	-0.049286	-0.010529	0.031891	-0.085449	0.018463	0.001678	-0.037079	0.067596	0.010223	0.000458	0.024719	-0.16998	0.13092	0.024261	-0.069275	0.055389	-0.33524	0.20325	0.11276	-0.013123	0.2359	0.024109	0.11505	-0.3418	0.000763	-0.018005
